v -312.5025635 -0.04535000771 -287.4975586
vn 0 1 0
v -287.5025635 -0.04535000771 -287.4975586
vn 0 1 0
v -312.5025635 -0.04535000771 -312.4975586
vn 0 1 0
v -287.5025635 -0.04535000771 -312.4975586
vn 0 1 0
v -300.002533 -0.04535000771 -299.9975281
vn 0 1 0
v -287.5025635 -0.04535000771 -312.4975586
vn 0 1 0
v -312.5025635 -0.04535000771 -312.4975586
vn 0 1 0
v -287.5025635 -0.04535000771 -287.4975586
vn 0 1 0
v -312.5025635 -0.04535000771 -287.4975586
vn 0 1 0
v -300.002533 -0.04535000771 -299.9975281
vn 0 1 0
# mm_gid 0
g mmGroup0
f 3//3 10//10 4//4 
f 1//1 2//2 10//10 
f 10//10 2//2 4//4 
f 1//1 10//10 3//3 
# mm_gid 4
g mmGroup4
f 9//9 5//5 7//7 
f 5//5 8//8 6//6 
f 9//9 8//8 5//5 
f 7//7 5//5 6//6 
